# xmcd CD database file
#
# Track frame offsets:
#	150
#	11812
#	33395
#	55451
#	77894
#	94028
#	109741
#	139459
#	159667
#	177954
#	195300
#
# Disc length: 2797 seconds
#
# Revision: 0
# Processed by: cddbd v1.5.2PL0 Copyright (c) Steve Scherf et al.
# Submitted via: CDex 1.51
#
DISCID=920aeb0b
DTITLE=Hank III - Rebel Within
DYEAR=2010
DGENRE=Country
TTITLE0=Gettin' Drunk And Fallin' Down
TTITLE1=Rebel Within
TTITLE2=Lookin' For A Mountain
TTITLE3=Gone But Not Forgotten
TTITLE4=Drinkin' Ain't Hard To Do
TTITLE5=Moonshiner's Life
TTITLE6=#5
TTITLE7=Karmageddon
TTITLE8=Lost In Oklahoma
TTITLE9=Tore Up And Loud
TTITLE10=Drinkin' Over Mama
EXTD=YEAR: 2010
EXTT0=
EXTT1=
EXTT2=
EXTT3=
EXTT4=
EXTT5=
EXTT6=
EXTT7=
EXTT8=
EXTT9=
EXTT10=
PLAYORDER=
